<mxfile host="app.diagrams.net" agent="Mozilla/5.0 (Windows NT 10.0; Win64; x64) AppleWebKit/537.36 (KHTML, like Gecko) Chrome/138.0.0.0 Safari/537.36" version="28.0.7">
  <diagram name="Page-1" id="B4Sl94_zx8Y2shrIZtoY">
    <mxGraphModel dx="1042" dy="562" grid="1" gridSize="10" guides="1" tooltips="1" connect="1" arrows="1" fold="1" page="1" pageScale="1" pageWidth="850" pageHeight="1100" math="0" shadow="0">
      <root>
        <mxCell id="0" />
        <mxCell id="1" parent="0" />
        <mxCell id="O1xYb7uJ8IjM_QD6SdKo-2" style="edgeStyle=orthogonalEdgeStyle;rounded=0;orthogonalLoop=1;jettySize=auto;html=1;exitX=0.5;exitY=1;exitDx=0;exitDy=0;" edge="1" parent="1" source="O1xYb7uJ8IjM_QD6SdKo-1">
          <mxGeometry relative="1" as="geometry">
            <mxPoint x="365" y="120" as="targetPoint" />
          </mxGeometry>
        </mxCell>
        <mxCell id="O1xYb7uJ8IjM_QD6SdKo-1" value="plan" style="ellipse;whiteSpace=wrap;html=1;fillColor=#d80073;fontColor=#ffffff;strokeColor=#A50040;" vertex="1" parent="1">
          <mxGeometry x="305" y="10" width="120" height="80" as="geometry" />
        </mxCell>
        <mxCell id="O1xYb7uJ8IjM_QD6SdKo-14" value="" style="edgeStyle=orthogonalEdgeStyle;rounded=0;orthogonalLoop=1;jettySize=auto;html=1;" edge="1" parent="1" source="O1xYb7uJ8IjM_QD6SdKo-3" target="O1xYb7uJ8IjM_QD6SdKo-6">
          <mxGeometry relative="1" as="geometry" />
        </mxCell>
        <mxCell id="O1xYb7uJ8IjM_QD6SdKo-3" value="Build" style="ellipse;whiteSpace=wrap;html=1;fillColor=#d80073;fontColor=#ffffff;strokeColor=#A50040;" vertex="1" parent="1">
          <mxGeometry x="305" y="240" width="120" height="80" as="geometry" />
        </mxCell>
        <mxCell id="O1xYb7uJ8IjM_QD6SdKo-4" value="Develop" style="ellipse;whiteSpace=wrap;html=1;fillColor=#d80073;fontColor=#ffffff;strokeColor=#A50040;" vertex="1" parent="1">
          <mxGeometry x="305" y="120" width="120" height="80" as="geometry" />
        </mxCell>
        <mxCell id="O1xYb7uJ8IjM_QD6SdKo-5" style="edgeStyle=orthogonalEdgeStyle;rounded=0;orthogonalLoop=1;jettySize=auto;html=1;" edge="1" parent="1" source="O1xYb7uJ8IjM_QD6SdKo-4">
          <mxGeometry relative="1" as="geometry">
            <mxPoint x="365" y="240" as="targetPoint" />
            <Array as="points">
              <mxPoint x="365" y="230" />
              <mxPoint x="366" y="230" />
            </Array>
          </mxGeometry>
        </mxCell>
        <mxCell id="O1xYb7uJ8IjM_QD6SdKo-16" value="" style="edgeStyle=orthogonalEdgeStyle;rounded=0;orthogonalLoop=1;jettySize=auto;html=1;" edge="1" parent="1" source="O1xYb7uJ8IjM_QD6SdKo-6" target="O1xYb7uJ8IjM_QD6SdKo-7">
          <mxGeometry relative="1" as="geometry" />
        </mxCell>
        <mxCell id="O1xYb7uJ8IjM_QD6SdKo-7" value="Release" style="ellipse;whiteSpace=wrap;html=1;fillColor=#d80073;fontColor=#ffffff;strokeColor=#A50040;" vertex="1" parent="1">
          <mxGeometry x="305" y="490" width="120" height="80" as="geometry" />
        </mxCell>
        <mxCell id="O1xYb7uJ8IjM_QD6SdKo-6" value="Text" style="ellipse;whiteSpace=wrap;html=1;fillColor=#d80073;fontColor=#ffffff;strokeColor=#A50040;" vertex="1" parent="1">
          <mxGeometry x="305" y="360" width="120" height="80" as="geometry" />
        </mxCell>
      </root>
    </mxGraphModel>
  </diagram>
</mxfile>
